DataType=double
version=3
OpenSimVersion=4.5.2-2025-05-03-6a4c6ec41
endheader
time	q	/jointset/head_joint/q/speed
7.500000000000839	-0.6280062367534811	0.6516735297570566
7.50100000000084	-0.6273528657637563	0.6550663693487304
7.50200000000084	-0.626696265238583	0.6581325893778535
7.50300000000084	-0.6260367453360881	0.6609051136910086
7.504000000000841	-0.625379060243533	0.6544629743474506
7.505000000000841	-0.6247263800780132	0.6508952745939993
7.506000000000841	-0.6240773700248478	0.6471227603748475
7.507000000000842	-0.6234318759237431	0.6438633807335113
7.508000000000842	-0.6227850227650434	0.6498408702652924
7.509000000000842	-0.6221335978693788	0.6530068390885658
7.510000000000843	-0.621478882082063	0.6564226420695352
7.511000000000843	-0.6208209857790177	0.6593678593889912
7.512000000000843	-0.6201602693520128	0.662062879969932
7.513000000000844	-0.6194969923992836	0.6644889016389649
7.514000000000844	-0.618831405240166	0.666683284339064
7.515000000000844	-0.6181637294846219	0.6686660867852142
7.516000000000845	-0.617494165989958	0.6704587555078887
7.517000000000845	-0.6168228956619166	0.6720797470419418
7.518000000000845	-0.616150081765392	0.6735458864933858
7.519000000000846	-0.61547587160672	0.6748722658228151
7.520000000000846	-0.6147959232645578	0.6850222340018874
7.521000000000846	-0.6141119134015279	0.6829952934510219
7.522000000000847	-0.6134284305779162	0.6839681558003774
7.523000000000847	-0.6127443697968745	0.6841512053928313
7.524000000000847	-0.6120600454818341	0.6844952218906655
7.525000000000848	-0.6113754139011439	0.6847657346443384
7.526000000000848	-0.6106905178203547	0.6850242201779521
7.527000000000848	-0.6100053756576618	0.685257896599891
7.528000000000849	-0.6093200094602486	0.6854722878380258
7.529000000000849	-0.6086344381542638	0.6856681120235264
7.530000000000849	-0.607948679450656	0.68584708142194
7.53100000000085	-0.6072627495655589	0.6860104733924554
7.53200000000085	-0.606576663467284	0.6861595062166029
7.53300000000085	-0.6058859600915156	0.6952450123933153
7.534000000000851	-0.6051877339627468	0.7012049868114183
7.535000000000851	-0.6044835588188756	0.7071430222515347
7.536000000000851	-0.6037738046124778	0.7123630926893192
7.537000000000852	-0.6030635413178946	0.7081611958476257
7.538000000000852	-0.602356157829956	0.7066034876096818
7.539000000000852	-0.6016505326387991	0.7046446068710731
7.540000000000853	-0.6009466995075935	0.7030193724129351
7.541000000000853	-0.6002444285023709	0.7015203588742871
7.542000000000853	-0.5995435781650515	0.70017804012462
7.543000000000854	-0.5988440052260928	0.6989655652133882
7.544000000000854	-0.5981455851395451	0.6978723379650865
7.545000000000854	-0.5974437302380466	0.7058351828628276
7.546000000000855	-0.5967354213293002	0.7107803303698875
7.547000000000855	-0.5960221297161648	0.7158005743104925
7.548000000000855	-0.595304133148895	0.72019022219038
7.549000000000856	-0.5945819437068628	0.7241863090347118
7.550000000000856	-0.5938559572858744	0.7277841665741114
7.551000000000856	-0.5931265469696015	0.73103408727494
7.552000000000857	-0.5923985197552495	0.7250179660764633
7.553000000000857	-0.5916750942528829	0.7218306771649249
7.554000000000857	-0.5909549790571178	0.7183973625390094
7.555000000000858	-0.5902380591410349	0.7154401271071037
7.556000000000858	-0.5895194947053536	0.7216863952330129
7.557000000000858	-0.5887961047708739	0.7250911077886192
7.558000000000859	-0.5880691987205954	0.7287186141790671
7.559000000000859	-0.587338912622865	0.7318511904710674
7.560000000000859	-0.5866056300008832	0.734711651702033
7.56100000000086	-0.5858696312794672	0.7372833792657069
7.56200000000086	-0.5851311855301413	0.7396056983189704
7.56300000000086	-0.5843905312480883	0.741700436289023
7.564000000000861	-0.5836478844955472	0.743590631563977
7.565000000000861	-0.582903439870916	0.7452961733689321
7.566000000000861	-0.5821573729706765	0.7468351762499853
7.567000000000862	-0.5814098422077716	0.7482238926834393
7.568000000000862	-0.5806609905474783	0.7494769654749166
7.569000000000862	-0.5799109470448759	0.7506075721696568
